<svg xmlns="http://www.w3.org/2000/svg" xmlns:xlink="http://www.w3.org/1999/xlink" style="margin:auto;background:var(--main-bg, #7aceff);display:block;z-index:1;position:relative" width="2560" height="2000" preserveAspectRatio="xMidYMid" viewBox="0 0 2560 2000">
<g transform="translate(1280,1000) scale(1,1) translate(-1280,-1000)"><g transform="translate(-100 613.6222649347469) rotate(0)">
  <animateTransform attributeName="transform" type="translate" keyTimes="0;1" values="-100 613.6222649347469;2560 613.6222649347469" dur="500s" repeatCount="indefinite" begin="-64.1238355142455s"></animateTransform>
  <path d="M84.717,33.597c0.791-2.503,1.186-5.138,1.186-7.773C85.903,11.594,74.308,0,60.079,0 c-9.881,0-18.445,5.534-22.793,13.702c-1.581-0.527-3.426-0.791-5.138-0.791c-9.486,0-17.128,7.642-17.128,17.128 c0,1.186,0.132,2.372,0.395,3.426C6.719,34.783,0,42.424,0,51.515C0,61.66,8.169,69.829,18.314,69.829h63.373 C91.831,69.829,100,61.66,100,51.515C99.868,42.556,93.281,35.046,84.717,33.597z" fill="var(--darker-cloud, #bddeff)" transform="scale(0.49500000000000005)"></path>
</g><g transform="translate(-100 437.5078700292021) rotate(0)">
  <animateTransform attributeName="transform" type="translate" keyTimes="0;1" values="-100 437.5078700292021;2560 437.5078700292021" dur="500s" repeatCount="indefinite" begin="-158.11561184402535s"></animateTransform>
  <path d="M84.717,33.597c0.791-2.503,1.186-5.138,1.186-7.773C85.903,11.594,74.308,0,60.079,0 c-9.881,0-18.445,5.534-22.793,13.702c-1.581-0.527-3.426-0.791-5.138-0.791c-9.486,0-17.128,7.642-17.128,17.128 c0,1.186,0.132,2.372,0.395,3.426C6.719,34.783,0,42.424,0,51.515C0,61.66,8.169,69.829,18.314,69.829h63.373 C91.831,69.829,100,61.66,100,51.515C99.868,42.556,93.281,35.046,84.717,33.597z" fill="var(--darker-cloud, #bddeff)" transform="scale(0.49500000000000005)"></path>
</g><g transform="translate(-100 93.27587023919249) rotate(0)">
  <animateTransform attributeName="transform" type="translate" keyTimes="0;1" values="-100 93.27587023919249;2560 93.27587023919249" dur="500s" repeatCount="indefinite" begin="-35.783450725534905s"></animateTransform>
  <path d="M84.717,33.597c0.791-2.503,1.186-5.138,1.186-7.773C85.903,11.594,74.308,0,60.079,0 c-9.881,0-18.445,5.534-22.793,13.702c-1.581-0.527-3.426-0.791-5.138-0.791c-9.486,0-17.128,7.642-17.128,17.128 c0,1.186,0.132,2.372,0.395,3.426C6.719,34.783,0,42.424,0,51.515C0,61.66,8.169,69.829,18.314,69.829h63.373 C91.831,69.829,100,61.66,100,51.515C99.868,42.556,93.281,35.046,84.717,33.597z" fill="var(--darker-cloud, #bddeff)" transform="scale(0.49500000000000005)"></path>
</g><g transform="translate(-100 628.4978033130004) rotate(0)">
  <animateTransform attributeName="transform" type="translate" keyTimes="0;1" values="-100 628.4978033130004;2560 628.4978033130004" dur="500s" repeatCount="indefinite" begin="-385.6258334877225s"></animateTransform>
  <path d="M84.717,33.597c0.791-2.503,1.186-5.138,1.186-7.773C85.903,11.594,74.308,0,60.079,0 c-9.881,0-18.445,5.534-22.793,13.702c-1.581-0.527-3.426-0.791-5.138-0.791c-9.486,0-17.128,7.642-17.128,17.128 c0,1.186,0.132,2.372,0.395,3.426C6.719,34.783,0,42.424,0,51.515C0,61.66,8.169,69.829,18.314,69.829h63.373 C91.831,69.829,100,61.66,100,51.515C99.868,42.556,93.281,35.046,84.717,33.597z" fill="var(--darker-cloud, #bddeff)" transform="scale(0.49500000000000005)"></path>
</g><g transform="translate(-100 126.28821545763857) rotate(0)">
  <animateTransform attributeName="transform" type="translate" keyTimes="0;1" values="-100 126.28821545763857;2560 126.28821545763857" dur="500s" repeatCount="indefinite" begin="-20.49809041323858s"></animateTransform>
  <path d="M84.717,33.597c0.791-2.503,1.186-5.138,1.186-7.773C85.903,11.594,74.308,0,60.079,0 c-9.881,0-18.445,5.534-22.793,13.702c-1.581-0.527-3.426-0.791-5.138-0.791c-9.486,0-17.128,7.642-17.128,17.128 c0,1.186,0.132,2.372,0.395,3.426C6.719,34.783,0,42.424,0,51.515C0,61.66,8.169,69.829,18.314,69.829h63.373 C91.831,69.829,100,61.66,100,51.515C99.868,42.556,93.281,35.046,84.717,33.597z" fill="var(--darker-cloud, #bddeff)" transform="scale(0.49500000000000005)"></path>
</g><g transform="translate(-100 287.111933699173) rotate(0)">
  <animateTransform attributeName="transform" type="translate" keyTimes="0;1" values="-100 287.111933699173;2560 287.111933699173" dur="500s" repeatCount="indefinite" begin="-353.16298902968157s"></animateTransform>
  <path d="M84.717,33.597c0.791-2.503,1.186-5.138,1.186-7.773C85.903,11.594,74.308,0,60.079,0 c-9.881,0-18.445,5.534-22.793,13.702c-1.581-0.527-3.426-0.791-5.138-0.791c-9.486,0-17.128,7.642-17.128,17.128 c0,1.186,0.132,2.372,0.395,3.426C6.719,34.783,0,42.424,0,51.515C0,61.66,8.169,69.829,18.314,69.829h63.373 C91.831,69.829,100,61.66,100,51.515C99.868,42.556,93.281,35.046,84.717,33.597z" fill="var(--darker-cloud, #bddeff)" transform="scale(0.49500000000000005)"></path>
</g><g transform="translate(-100 1756.7730701451128) rotate(0)">
  <animateTransform attributeName="transform" type="translate" keyTimes="0;1" values="-100 1756.7730701451128;2560 1756.7730701451128" dur="500s" repeatCount="indefinite" begin="-462.9554082088175s"></animateTransform>
  <path d="M84.717,33.597c0.791-2.503,1.186-5.138,1.186-7.773C85.903,11.594,74.308,0,60.079,0 c-9.881,0-18.445,5.534-22.793,13.702c-1.581-0.527-3.426-0.791-5.138-0.791c-9.486,0-17.128,7.642-17.128,17.128 c0,1.186,0.132,2.372,0.395,3.426C6.719,34.783,0,42.424,0,51.515C0,61.66,8.169,69.829,18.314,69.829h63.373 C91.831,69.829,100,61.66,100,51.515C99.868,42.556,93.281,35.046,84.717,33.597z" fill="var(--darker-cloud, #bddeff)" transform="scale(0.49500000000000005)"></path>
</g><g transform="translate(-100 1684.8732405770622) rotate(0)">
  <animateTransform attributeName="transform" type="translate" keyTimes="0;1" values="-100 1684.8732405770622;2560 1684.8732405770622" dur="500s" repeatCount="indefinite" begin="-38.10050287755951s"></animateTransform>
  <path d="M84.717,33.597c0.791-2.503,1.186-5.138,1.186-7.773C85.903,11.594,74.308,0,60.079,0 c-9.881,0-18.445,5.534-22.793,13.702c-1.581-0.527-3.426-0.791-5.138-0.791c-9.486,0-17.128,7.642-17.128,17.128 c0,1.186,0.132,2.372,0.395,3.426C6.719,34.783,0,42.424,0,51.515C0,61.66,8.169,69.829,18.314,69.829h63.373 C91.831,69.829,100,61.66,100,51.515C99.868,42.556,93.281,35.046,84.717,33.597z" fill="var(--darker-cloud, #bddeff)" transform="scale(0.49500000000000005)"></path>
</g><g transform="translate(-100 373.129220968238) rotate(0)">
  <animateTransform attributeName="transform" type="translate" keyTimes="0;1" values="-100 373.129220968238;2560 373.129220968238" dur="500s" repeatCount="indefinite" begin="-494.10499070165827s"></animateTransform>
  <path d="M84.717,33.597c0.791-2.503,1.186-5.138,1.186-7.773C85.903,11.594,74.308,0,60.079,0 c-9.881,0-18.445,5.534-22.793,13.702c-1.581-0.527-3.426-0.791-5.138-0.791c-9.486,0-17.128,7.642-17.128,17.128 c0,1.186,0.132,2.372,0.395,3.426C6.719,34.783,0,42.424,0,51.515C0,61.66,8.169,69.829,18.314,69.829h63.373 C91.831,69.829,100,61.66,100,51.515C99.868,42.556,93.281,35.046,84.717,33.597z" fill="var(--darker-cloud, #bddeff)" transform="scale(0.49500000000000005)"></path>
</g><g transform="translate(-100 352.4228714320974) rotate(0)">
  <animateTransform attributeName="transform" type="translate" keyTimes="0;1" values="-100 352.4228714320974;2560 352.4228714320974" dur="500s" repeatCount="indefinite" begin="-40.31240323766083s"></animateTransform>
  <path d="M84.717,33.597c0.791-2.503,1.186-5.138,1.186-7.773C85.903,11.594,74.308,0,60.079,0 c-9.881,0-18.445,5.534-22.793,13.702c-1.581-0.527-3.426-0.791-5.138-0.791c-9.486,0-17.128,7.642-17.128,17.128 c0,1.186,0.132,2.372,0.395,3.426C6.719,34.783,0,42.424,0,51.515C0,61.66,8.169,69.829,18.314,69.829h63.373 C91.831,69.829,100,61.66,100,51.515C99.868,42.556,93.281,35.046,84.717,33.597z" fill="var(--darker-cloud, #bddeff)" transform="scale(0.49500000000000005)"></path>
</g><g transform="translate(-100 1876.461003460573) rotate(0)">
  <animateTransform attributeName="transform" type="translate" keyTimes="0;1" values="-100 1876.461003460573;2560 1876.461003460573" dur="500s" repeatCount="indefinite" begin="-62.52804016421154s"></animateTransform>
  <path d="M84.717,33.597c0.791-2.503,1.186-5.138,1.186-7.773C85.903,11.594,74.308,0,60.079,0 c-9.881,0-18.445,5.534-22.793,13.702c-1.581-0.527-3.426-0.791-5.138-0.791c-9.486,0-17.128,7.642-17.128,17.128 c0,1.186,0.132,2.372,0.395,3.426C6.719,34.783,0,42.424,0,51.515C0,61.66,8.169,69.829,18.314,69.829h63.373 C91.831,69.829,100,61.66,100,51.515C99.868,42.556,93.281,35.046,84.717,33.597z" fill="var(--darker-cloud, #bddeff)" transform="scale(0.49500000000000005)"></path>
</g><g transform="translate(-100 824.2606795991114) rotate(0)">
  <animateTransform attributeName="transform" type="translate" keyTimes="0;1" values="-100 824.2606795991114;2560 824.2606795991114" dur="250s" repeatCount="indefinite" begin="-148.35828010183283s"></animateTransform>
  <path d="M84.717,33.597c0.791-2.503,1.186-5.138,1.186-7.773C85.903,11.594,74.308,0,60.079,0 c-9.881,0-18.445,5.534-22.793,13.702c-1.581-0.527-3.426-0.791-5.138-0.791c-9.486,0-17.128,7.642-17.128,17.128 c0,1.186,0.132,2.372,0.395,3.426C6.719,34.783,0,42.424,0,51.515C0,61.66,8.169,69.829,18.314,69.829h63.373 C91.831,69.829,100,61.66,100,51.515C99.868,42.556,93.281,35.046,84.717,33.597z" fill="var(--lighter-cloud, #ffffff)" transform="scale(0.63)"></path>
</g><g transform="translate(-100 382.96597639270493) rotate(0)">
  <animateTransform attributeName="transform" type="translate" keyTimes="0;1" values="-100 382.96597639270493;2560 382.96597639270493" dur="250s" repeatCount="indefinite" begin="-385.50639288829234s"></animateTransform>
  <path d="M84.717,33.597c0.791-2.503,1.186-5.138,1.186-7.773C85.903,11.594,74.308,0,60.079,0 c-9.881,0-18.445,5.534-22.793,13.702c-1.581-0.527-3.426-0.791-5.138-0.791c-9.486,0-17.128,7.642-17.128,17.128 c0,1.186,0.132,2.372,0.395,3.426C6.719,34.783,0,42.424,0,51.515C0,61.66,8.169,69.829,18.314,69.829h63.373 C91.831,69.829,100,61.66,100,51.515C99.868,42.556,93.281,35.046,84.717,33.597z" fill="var(--lighter-cloud, #ffffff)" transform="scale(0.63)"></path>
</g><g transform="translate(-100 158.40886874224535) rotate(0)">
  <animateTransform attributeName="transform" type="translate" keyTimes="0;1" values="-100 158.40886874224535;2560 158.40886874224535" dur="250s" repeatCount="indefinite" begin="-365.23922751827985s"></animateTransform>
  <path d="M84.717,33.597c0.791-2.503,1.186-5.138,1.186-7.773C85.903,11.594,74.308,0,60.079,0 c-9.881,0-18.445,5.534-22.793,13.702c-1.581-0.527-3.426-0.791-5.138-0.791c-9.486,0-17.128,7.642-17.128,17.128 c0,1.186,0.132,2.372,0.395,3.426C6.719,34.783,0,42.424,0,51.515C0,61.66,8.169,69.829,18.314,69.829h63.373 C91.831,69.829,100,61.66,100,51.515C99.868,42.556,93.281,35.046,84.717,33.597z" fill="var(--lighter-cloud, #ffffff)" transform="scale(0.63)"></path>
</g><g transform="translate(-100 925.3433384983314) rotate(0)">
  <animateTransform attributeName="transform" type="translate" keyTimes="0;1" values="-100 925.3433384983314;2560 925.3433384983314" dur="250s" repeatCount="indefinite" begin="-432.0500569308016s"></animateTransform>
  <path d="M84.717,33.597c0.791-2.503,1.186-5.138,1.186-7.773C85.903,11.594,74.308,0,60.079,0 c-9.881,0-18.445,5.534-22.793,13.702c-1.581-0.527-3.426-0.791-5.138-0.791c-9.486,0-17.128,7.642-17.128,17.128 c0,1.186,0.132,2.372,0.395,3.426C6.719,34.783,0,42.424,0,51.515C0,61.66,8.169,69.829,18.314,69.829h63.373 C91.831,69.829,100,61.66,100,51.515C99.868,42.556,93.281,35.046,84.717,33.597z" fill="var(--lighter-cloud, #ffffff)" transform="scale(0.63)"></path>
</g><g transform="translate(-100 1784.8808044307955) rotate(0)">
  <animateTransform attributeName="transform" type="translate" keyTimes="0;1" values="-100 1784.8808044307955;2560 1784.8808044307955" dur="250s" repeatCount="indefinite" begin="-147.7004117858065s"></animateTransform>
  <path d="M84.717,33.597c0.791-2.503,1.186-5.138,1.186-7.773C85.903,11.594,74.308,0,60.079,0 c-9.881,0-18.445,5.534-22.793,13.702c-1.581-0.527-3.426-0.791-5.138-0.791c-9.486,0-17.128,7.642-17.128,17.128 c0,1.186,0.132,2.372,0.395,3.426C6.719,34.783,0,42.424,0,51.515C0,61.66,8.169,69.829,18.314,69.829h63.373 C91.831,69.829,100,61.66,100,51.515C99.868,42.556,93.281,35.046,84.717,33.597z" fill="var(--lighter-cloud, #ffffff)" transform="scale(0.63)"></path>
</g><g transform="translate(-100 461.57145783032007) rotate(0)">
  <animateTransform attributeName="transform" type="translate" keyTimes="0;1" values="-100 461.57145783032007;2560 461.57145783032007" dur="250s" repeatCount="indefinite" begin="-173.88043737539894s"></animateTransform>
  <path d="M84.717,33.597c0.791-2.503,1.186-5.138,1.186-7.773C85.903,11.594,74.308,0,60.079,0 c-9.881,0-18.445,5.534-22.793,13.702c-1.581-0.527-3.426-0.791-5.138-0.791c-9.486,0-17.128,7.642-17.128,17.128 c0,1.186,0.132,2.372,0.395,3.426C6.719,34.783,0,42.424,0,51.515C0,61.66,8.169,69.829,18.314,69.829h63.373 C91.831,69.829,100,61.66,100,51.515C99.868,42.556,93.281,35.046,84.717,33.597z" fill="var(--lighter-cloud, #ffffff)" transform="scale(0.63)"></path>
</g><g transform="translate(-100 438.52219578152375) rotate(0)">
  <animateTransform attributeName="transform" type="translate" keyTimes="0;1" values="-100 438.52219578152375;2560 438.52219578152375" dur="250s" repeatCount="indefinite" begin="-255.35536231885092s"></animateTransform>
  <path d="M84.717,33.597c0.791-2.503,1.186-5.138,1.186-7.773C85.903,11.594,74.308,0,60.079,0 c-9.881,0-18.445,5.534-22.793,13.702c-1.581-0.527-3.426-0.791-5.138-0.791c-9.486,0-17.128,7.642-17.128,17.128 c0,1.186,0.132,2.372,0.395,3.426C6.719,34.783,0,42.424,0,51.515C0,61.66,8.169,69.829,18.314,69.829h63.373 C91.831,69.829,100,61.66,100,51.515C99.868,42.556,93.281,35.046,84.717,33.597z" fill="var(--lighter-cloud, #ffffff)" transform="scale(0.63)"></path>
</g><g transform="translate(-100 70.0959894655111) rotate(0)">
  <animateTransform attributeName="transform" type="translate" keyTimes="0;1" values="-100 70.0959894655111;2560 70.0959894655111" dur="250s" repeatCount="indefinite" begin="-271.06241057591217s"></animateTransform>
  <path d="M84.717,33.597c0.791-2.503,1.186-5.138,1.186-7.773C85.903,11.594,74.308,0,60.079,0 c-9.881,0-18.445,5.534-22.793,13.702c-1.581-0.527-3.426-0.791-5.138-0.791c-9.486,0-17.128,7.642-17.128,17.128 c0,1.186,0.132,2.372,0.395,3.426C6.719,34.783,0,42.424,0,51.515C0,61.66,8.169,69.829,18.314,69.829h63.373 C91.831,69.829,100,61.66,100,51.515C99.868,42.556,93.281,35.046,84.717,33.597z" fill="var(--lighter-cloud, #ffffff)" transform="scale(0.63)"></path>
</g><g transform="translate(-100 1996.8894889370588) rotate(0)">
  <animateTransform attributeName="transform" type="translate" keyTimes="0;1" values="-100 1996.8894889370588;2560 1996.8894889370588" dur="250s" repeatCount="indefinite" begin="-152.54248083644617s"></animateTransform>
  <path d="M84.717,33.597c0.791-2.503,1.186-5.138,1.186-7.773C85.903,11.594,74.308,0,60.079,0 c-9.881,0-18.445,5.534-22.793,13.702c-1.581-0.527-3.426-0.791-5.138-0.791c-9.486,0-17.128,7.642-17.128,17.128 c0,1.186,0.132,2.372,0.395,3.426C6.719,34.783,0,42.424,0,51.515C0,61.66,8.169,69.829,18.314,69.829h63.373 C91.831,69.829,100,61.66,100,51.515C99.868,42.556,93.281,35.046,84.717,33.597z" fill="var(--lighter-cloud, #ffffff)" transform="scale(0.63)"></path>
</g><g transform="translate(-100 650.852735404865) rotate(0)">
  <animateTransform attributeName="transform" type="translate" keyTimes="0;1" values="-100 650.852735404865;2560 650.852735404865" dur="250s" repeatCount="indefinite" begin="-431.93648670948613s"></animateTransform>
  <path d="M84.717,33.597c0.791-2.503,1.186-5.138,1.186-7.773C85.903,11.594,74.308,0,60.079,0 c-9.881,0-18.445,5.534-22.793,13.702c-1.581-0.527-3.426-0.791-5.138-0.791c-9.486,0-17.128,7.642-17.128,17.128 c0,1.186,0.132,2.372,0.395,3.426C6.719,34.783,0,42.424,0,51.515C0,61.66,8.169,69.829,18.314,69.829h63.373 C91.831,69.829,100,61.66,100,51.515C99.868,42.556,93.281,35.046,84.717,33.597z" fill="var(--lighter-cloud, #ffffff)" transform="scale(0.63)"></path>
</g><g transform="translate(-100 723.8522671834331) rotate(0)">
  <animateTransform attributeName="transform" type="translate" keyTimes="0;1" values="-100 723.8522671834331;2560 723.8522671834331" dur="250s" repeatCount="indefinite" begin="-200.52275139362442s"></animateTransform>
  <path d="M84.717,33.597c0.791-2.503,1.186-5.138,1.186-7.773C85.903,11.594,74.308,0,60.079,0 c-9.881,0-18.445,5.534-22.793,13.702c-1.581-0.527-3.426-0.791-5.138-0.791c-9.486,0-17.128,7.642-17.128,17.128 c0,1.186,0.132,2.372,0.395,3.426C6.719,34.783,0,42.424,0,51.515C0,61.66,8.169,69.829,18.314,69.829h63.373 C91.831,69.829,100,61.66,100,51.515C99.868,42.556,93.281,35.046,84.717,33.597z" fill="var(--lighter-cloud, #ffffff)" transform="scale(0.63)"></path>
</g><g transform="translate(-100 1198.31672645171) rotate(0)">
  <animateTransform attributeName="transform" type="translate" keyTimes="0;1" values="-100 1198.31672645171;2560 1198.31672645171" dur="166.66666666666666s" repeatCount="indefinite" begin="-115.79775243934843s"></animateTransform>
  <path d="M84.717,33.597c0.791-2.503,1.186-5.138,1.186-7.773C85.903,11.594,74.308,0,60.079,0 c-9.881,0-18.445,5.534-22.793,13.702c-1.581-0.527-3.426-0.791-5.138-0.791c-9.486,0-17.128,7.642-17.128,17.128 c0,1.186,0.132,2.372,0.395,3.426C6.719,34.783,0,42.424,0,51.515C0,61.66,8.169,69.829,18.314,69.829h63.373 C91.831,69.829,100,61.66,100,51.515C99.868,42.556,93.281,35.046,84.717,33.597z" fill="#f1f2f3" transform="scale(0.765)"></path>
</g><g transform="translate(-100 223.91797998555774) rotate(0)">
  <animateTransform attributeName="transform" type="translate" keyTimes="0;1" values="-100 223.91797998555774;2560 223.91797998555774" dur="166.66666666666666s" repeatCount="indefinite" begin="-98.30553407429188s"></animateTransform>
  <path d="M84.717,33.597c0.791-2.503,1.186-5.138,1.186-7.773C85.903,11.594,74.308,0,60.079,0 c-9.881,0-18.445,5.534-22.793,13.702c-1.581-0.527-3.426-0.791-5.138-0.791c-9.486,0-17.128,7.642-17.128,17.128 c0,1.186,0.132,2.372,0.395,3.426C6.719,34.783,0,42.424,0,51.515C0,61.66,8.169,69.829,18.314,69.829h63.373 C91.831,69.829,100,61.66,100,51.515C99.868,42.556,93.281,35.046,84.717,33.597z" fill="#f1f2f3" transform="scale(0.765)"></path>
</g><g transform="translate(-100 1932.4419256081017) rotate(0)">
  <animateTransform attributeName="transform" type="translate" keyTimes="0;1" values="-100 1932.4419256081017;2560 1932.4419256081017" dur="166.66666666666666s" repeatCount="indefinite" begin="-373.8469967475496s"></animateTransform>
  <path d="M84.717,33.597c0.791-2.503,1.186-5.138,1.186-7.773C85.903,11.594,74.308,0,60.079,0 c-9.881,0-18.445,5.534-22.793,13.702c-1.581-0.527-3.426-0.791-5.138-0.791c-9.486,0-17.128,7.642-17.128,17.128 c0,1.186,0.132,2.372,0.395,3.426C6.719,34.783,0,42.424,0,51.515C0,61.66,8.169,69.829,18.314,69.829h63.373 C91.831,69.829,100,61.66,100,51.515C99.868,42.556,93.281,35.046,84.717,33.597z" fill="#f1f2f3" transform="scale(0.765)"></path>
</g><g transform="translate(-100 1391.8767199337037) rotate(0)">
  <animateTransform attributeName="transform" type="translate" keyTimes="0;1" values="-100 1391.8767199337037;2560 1391.8767199337037" dur="166.66666666666666s" repeatCount="indefinite" begin="-376.0001817200596s"></animateTransform>
  <path d="M84.717,33.597c0.791-2.503,1.186-5.138,1.186-7.773C85.903,11.594,74.308,0,60.079,0 c-9.881,0-18.445,5.534-22.793,13.702c-1.581-0.527-3.426-0.791-5.138-0.791c-9.486,0-17.128,7.642-17.128,17.128 c0,1.186,0.132,2.372,0.395,3.426C6.719,34.783,0,42.424,0,51.515C0,61.66,8.169,69.829,18.314,69.829h63.373 C91.831,69.829,100,61.66,100,51.515C99.868,42.556,93.281,35.046,84.717,33.597z" fill="#f1f2f3" transform="scale(0.765)"></path>
</g><g transform="translate(-100 128.27322255652973) rotate(0)">
  <animateTransform attributeName="transform" type="translate" keyTimes="0;1" values="-100 128.27322255652973;2560 128.27322255652973" dur="166.66666666666666s" repeatCount="indefinite" begin="-214.36672905140918s"></animateTransform>
  <path d="M84.717,33.597c0.791-2.503,1.186-5.138,1.186-7.773C85.903,11.594,74.308,0,60.079,0 c-9.881,0-18.445,5.534-22.793,13.702c-1.581-0.527-3.426-0.791-5.138-0.791c-9.486,0-17.128,7.642-17.128,17.128 c0,1.186,0.132,2.372,0.395,3.426C6.719,34.783,0,42.424,0,51.515C0,61.66,8.169,69.829,18.314,69.829h63.373 C91.831,69.829,100,61.66,100,51.515C99.868,42.556,93.281,35.046,84.717,33.597z" fill="#f1f2f3" transform="scale(0.765)"></path>
</g><g transform="translate(-100 1465.7290969663363) rotate(0)">
  <animateTransform attributeName="transform" type="translate" keyTimes="0;1" values="-100 1465.7290969663363;2560 1465.7290969663363" dur="166.66666666666666s" repeatCount="indefinite" begin="-170.14800162479372s"></animateTransform>
  <path d="M84.717,33.597c0.791-2.503,1.186-5.138,1.186-7.773C85.903,11.594,74.308,0,60.079,0 c-9.881,0-18.445,5.534-22.793,13.702c-1.581-0.527-3.426-0.791-5.138-0.791c-9.486,0-17.128,7.642-17.128,17.128 c0,1.186,0.132,2.372,0.395,3.426C6.719,34.783,0,42.424,0,51.515C0,61.66,8.169,69.829,18.314,69.829h63.373 C91.831,69.829,100,61.66,100,51.515C99.868,42.556,93.281,35.046,84.717,33.597z" fill="#f1f2f3" transform="scale(0.765)"></path>
</g><g transform="translate(-100 1944.4016954817553) rotate(0)">
  <animateTransform attributeName="transform" type="translate" keyTimes="0;1" values="-100 1944.4016954817553;2560 1944.4016954817553" dur="166.66666666666666s" repeatCount="indefinite" begin="-495.50093413096585s"></animateTransform>
  <path d="M84.717,33.597c0.791-2.503,1.186-5.138,1.186-7.773C85.903,11.594,74.308,0,60.079,0 c-9.881,0-18.445,5.534-22.793,13.702c-1.581-0.527-3.426-0.791-5.138-0.791c-9.486,0-17.128,7.642-17.128,17.128 c0,1.186,0.132,2.372,0.395,3.426C6.719,34.783,0,42.424,0,51.515C0,61.66,8.169,69.829,18.314,69.829h63.373 C91.831,69.829,100,61.66,100,51.515C99.868,42.556,93.281,35.046,84.717,33.597z" fill="#f1f2f3" transform="scale(0.765)"></path>
</g><g transform="translate(-100 1923.591331781414) rotate(0)">
  <animateTransform attributeName="transform" type="translate" keyTimes="0;1" values="-100 1923.591331781414;2560 1923.591331781414" dur="166.66666666666666s" repeatCount="indefinite" begin="-12.666720358772254s"></animateTransform>
  <path d="M84.717,33.597c0.791-2.503,1.186-5.138,1.186-7.773C85.903,11.594,74.308,0,60.079,0 c-9.881,0-18.445,5.534-22.793,13.702c-1.581-0.527-3.426-0.791-5.138-0.791c-9.486,0-17.128,7.642-17.128,17.128 c0,1.186,0.132,2.372,0.395,3.426C6.719,34.783,0,42.424,0,51.515C0,61.66,8.169,69.829,18.314,69.829h63.373 C91.831,69.829,100,61.66,100,51.515C99.868,42.556,93.281,35.046,84.717,33.597z" fill="#f1f2f3" transform="scale(0.765)"></path>
</g><g transform="translate(-100 912.3747298536671) rotate(0)">
  <animateTransform attributeName="transform" type="translate" keyTimes="0;1" values="-100 912.3747298536671;2560 912.3747298536671" dur="166.66666666666666s" repeatCount="indefinite" begin="-153.6202230449033s"></animateTransform>
  <path d="M84.717,33.597c0.791-2.503,1.186-5.138,1.186-7.773C85.903,11.594,74.308,0,60.079,0 c-9.881,0-18.445,5.534-22.793,13.702c-1.581-0.527-3.426-0.791-5.138-0.791c-9.486,0-17.128,7.642-17.128,17.128 c0,1.186,0.132,2.372,0.395,3.426C6.719,34.783,0,42.424,0,51.515C0,61.66,8.169,69.829,18.314,69.829h63.373 C91.831,69.829,100,61.66,100,51.515C99.868,42.556,93.281,35.046,84.717,33.597z" fill="#f1f2f3" transform="scale(0.765)"></path>
</g><g transform="translate(-100 1029.9131627146262) rotate(0)">
  <animateTransform attributeName="transform" type="translate" keyTimes="0;1" values="-100 1029.9131627146262;2560 1029.9131627146262" dur="166.66666666666666s" repeatCount="indefinite" begin="-283.52511636819276s"></animateTransform>
  <path d="M84.717,33.597c0.791-2.503,1.186-5.138,1.186-7.773C85.903,11.594,74.308,0,60.079,0 c-9.881,0-18.445,5.534-22.793,13.702c-1.581-0.527-3.426-0.791-5.138-0.791c-9.486,0-17.128,7.642-17.128,17.128 c0,1.186,0.132,2.372,0.395,3.426C6.719,34.783,0,42.424,0,51.515C0,61.66,8.169,69.829,18.314,69.829h63.373 C91.831,69.829,100,61.66,100,51.515C99.868,42.556,93.281,35.046,84.717,33.597z" fill="#f1f2f3" transform="scale(0.765)"></path>
</g><g transform="translate(-100 1070.5595098746676) rotate(0)">
  <animateTransform attributeName="transform" type="translate" keyTimes="0;1" values="-100 1070.5595098746676;2560 1070.5595098746676" dur="166.66666666666666s" repeatCount="indefinite" begin="-102.5785916168832s"></animateTransform>
  <path d="M84.717,33.597c0.791-2.503,1.186-5.138,1.186-7.773C85.903,11.594,74.308,0,60.079,0 c-9.881,0-18.445,5.534-22.793,13.702c-1.581-0.527-3.426-0.791-5.138-0.791c-9.486,0-17.128,7.642-17.128,17.128 c0,1.186,0.132,2.372,0.395,3.426C6.719,34.783,0,42.424,0,51.515C0,61.66,8.169,69.829,18.314,69.829h63.373 C91.831,69.829,100,61.66,100,51.515C99.868,42.556,93.281,35.046,84.717,33.597z" fill="#f1f2f3" transform="scale(0.765)"></path>
</g><g transform="translate(-100 1887.6397899269066) rotate(0)">
  <animateTransform attributeName="transform" type="translate" keyTimes="0;1" values="-100 1887.6397899269066;2560 1887.6397899269066" dur="125s" repeatCount="indefinite" begin="-203.53755550650533s"></animateTransform>
  <path d="M84.717,33.597c0.791-2.503,1.186-5.138,1.186-7.773C85.903,11.594,74.308,0,60.079,0 c-9.881,0-18.445,5.534-22.793,13.702c-1.581-0.527-3.426-0.791-5.138-0.791c-9.486,0-17.128,7.642-17.128,17.128 c0,1.186,0.132,2.372,0.395,3.426C6.719,34.783,0,42.424,0,51.515C0,61.66,8.169,69.829,18.314,69.829h63.373 C91.831,69.829,100,61.66,100,51.515C99.868,42.556,93.281,35.046,84.717,33.597z" fill="var(--darker-cloud, #bddeff)" transform="scale(0.9)"></path>
</g><g transform="translate(-100 1070.4450144784162) rotate(0)">
  <animateTransform attributeName="transform" type="translate" keyTimes="0;1" values="-100 1070.4450144784162;2560 1070.4450144784162" dur="125s" repeatCount="indefinite" begin="-33.732264205734054s"></animateTransform>
  <path d="M84.717,33.597c0.791-2.503,1.186-5.138,1.186-7.773C85.903,11.594,74.308,0,60.079,0 c-9.881,0-18.445,5.534-22.793,13.702c-1.581-0.527-3.426-0.791-5.138-0.791c-9.486,0-17.128,7.642-17.128,17.128 c0,1.186,0.132,2.372,0.395,3.426C6.719,34.783,0,42.424,0,51.515C0,61.66,8.169,69.829,18.314,69.829h63.373 C91.831,69.829,100,61.66,100,51.515C99.868,42.556,93.281,35.046,84.717,33.597z" fill="var(--darker-cloud, #bddeff)" transform="scale(0.9)"></path>
</g><g transform="translate(-100 819.6856130314702) rotate(0)">
  <animateTransform attributeName="transform" type="translate" keyTimes="0;1" values="-100 819.6856130314702;2560 819.6856130314702" dur="125s" repeatCount="indefinite" begin="-442.55875974746914s"></animateTransform>
  <path d="M84.717,33.597c0.791-2.503,1.186-5.138,1.186-7.773C85.903,11.594,74.308,0,60.079,0 c-9.881,0-18.445,5.534-22.793,13.702c-1.581-0.527-3.426-0.791-5.138-0.791c-9.486,0-17.128,7.642-17.128,17.128 c0,1.186,0.132,2.372,0.395,3.426C6.719,34.783,0,42.424,0,51.515C0,61.66,8.169,69.829,18.314,69.829h63.373 C91.831,69.829,100,61.66,100,51.515C99.868,42.556,93.281,35.046,84.717,33.597z" fill="var(--darker-cloud, #bddeff)" transform="scale(0.9)"></path>
</g><g transform="translate(-100 804.1990960557355) rotate(0)">
  <animateTransform attributeName="transform" type="translate" keyTimes="0;1" values="-100 804.1990960557355;2560 804.1990960557355" dur="125s" repeatCount="indefinite" begin="-156.56444561272076s"></animateTransform>
  <path d="M84.717,33.597c0.791-2.503,1.186-5.138,1.186-7.773C85.903,11.594,74.308,0,60.079,0 c-9.881,0-18.445,5.534-22.793,13.702c-1.581-0.527-3.426-0.791-5.138-0.791c-9.486,0-17.128,7.642-17.128,17.128 c0,1.186,0.132,2.372,0.395,3.426C6.719,34.783,0,42.424,0,51.515C0,61.66,8.169,69.829,18.314,69.829h63.373 C91.831,69.829,100,61.66,100,51.515C99.868,42.556,93.281,35.046,84.717,33.597z" fill="var(--darker-cloud, #bddeff)" transform="scale(0.9)"></path>
</g><g transform="translate(-100 711.878622344563) rotate(0)">
  <animateTransform attributeName="transform" type="translate" keyTimes="0;1" values="-100 711.878622344563;2560 711.878622344563" dur="125s" repeatCount="indefinite" begin="-480.2584547449038s"></animateTransform>
  <path d="M84.717,33.597c0.791-2.503,1.186-5.138,1.186-7.773C85.903,11.594,74.308,0,60.079,0 c-9.881,0-18.445,5.534-22.793,13.702c-1.581-0.527-3.426-0.791-5.138-0.791c-9.486,0-17.128,7.642-17.128,17.128 c0,1.186,0.132,2.372,0.395,3.426C6.719,34.783,0,42.424,0,51.515C0,61.66,8.169,69.829,18.314,69.829h63.373 C91.831,69.829,100,61.66,100,51.515C99.868,42.556,93.281,35.046,84.717,33.597z" fill="var(--darker-cloud, #bddeff)" transform="scale(0.9)"></path>
</g><g transform="translate(-100 825.1861136329253) rotate(0)">
  <animateTransform attributeName="transform" type="translate" keyTimes="0;1" values="-100 825.1861136329253;2560 825.1861136329253" dur="125s" repeatCount="indefinite" begin="-394.3149862956452s"></animateTransform>
  <path d="M84.717,33.597c0.791-2.503,1.186-5.138,1.186-7.773C85.903,11.594,74.308,0,60.079,0 c-9.881,0-18.445,5.534-22.793,13.702c-1.581-0.527-3.426-0.791-5.138-0.791c-9.486,0-17.128,7.642-17.128,17.128 c0,1.186,0.132,2.372,0.395,3.426C6.719,34.783,0,42.424,0,51.515C0,61.66,8.169,69.829,18.314,69.829h63.373 C91.831,69.829,100,61.66,100,51.515C99.868,42.556,93.281,35.046,84.717,33.597z" fill="var(--darker-cloud, #bddeff)" transform="scale(0.9)"></path>
</g><g transform="translate(-100 219.10626926768018) rotate(0)">
  <animateTransform attributeName="transform" type="translate" keyTimes="0;1" values="-100 219.10626926768018;2560 219.10626926768018" dur="125s" repeatCount="indefinite" begin="-495.3670423195492s"></animateTransform>
  <path d="M84.717,33.597c0.791-2.503,1.186-5.138,1.186-7.773C85.903,11.594,74.308,0,60.079,0 c-9.881,0-18.445,5.534-22.793,13.702c-1.581-0.527-3.426-0.791-5.138-0.791c-9.486,0-17.128,7.642-17.128,17.128 c0,1.186,0.132,2.372,0.395,3.426C6.719,34.783,0,42.424,0,51.515C0,61.66,8.169,69.829,18.314,69.829h63.373 C91.831,69.829,100,61.66,100,51.515C99.868,42.556,93.281,35.046,84.717,33.597z" fill="var(--darker-cloud, #bddeff)" transform="scale(0.9)"></path>
</g><g transform="translate(-100 758.0584023762982) rotate(0)">
  <animateTransform attributeName="transform" type="translate" keyTimes="0;1" values="-100 758.0584023762982;2560 758.0584023762982" dur="125s" repeatCount="indefinite" begin="-40.90101339943442s"></animateTransform>
  <path d="M84.717,33.597c0.791-2.503,1.186-5.138,1.186-7.773C85.903,11.594,74.308,0,60.079,0 c-9.881,0-18.445,5.534-22.793,13.702c-1.581-0.527-3.426-0.791-5.138-0.791c-9.486,0-17.128,7.642-17.128,17.128 c0,1.186,0.132,2.372,0.395,3.426C6.719,34.783,0,42.424,0,51.515C0,61.66,8.169,69.829,18.314,69.829h63.373 C91.831,69.829,100,61.66,100,51.515C99.868,42.556,93.281,35.046,84.717,33.597z" fill="var(--darker-cloud, #bddeff)" transform="scale(0.9)"></path>
</g><g transform="translate(-100 48.46165490310872) rotate(0)">
  <animateTransform attributeName="transform" type="translate" keyTimes="0;1" values="-100 48.46165490310872;2560 48.46165490310872" dur="125s" repeatCount="indefinite" begin="-91.31043927724414s"></animateTransform>
  <path d="M84.717,33.597c0.791-2.503,1.186-5.138,1.186-7.773C85.903,11.594,74.308,0,60.079,0 c-9.881,0-18.445,5.534-22.793,13.702c-1.581-0.527-3.426-0.791-5.138-0.791c-9.486,0-17.128,7.642-17.128,17.128 c0,1.186,0.132,2.372,0.395,3.426C6.719,34.783,0,42.424,0,51.515C0,61.66,8.169,69.829,18.314,69.829h63.373 C91.831,69.829,100,61.66,100,51.515C99.868,42.556,93.281,35.046,84.717,33.597z" fill="var(--darker-cloud, #bddeff)" transform="scale(0.9)"></path>
</g><g transform="translate(-100 984.7607854621749) rotate(0)">
  <animateTransform attributeName="transform" type="translate" keyTimes="0;1" values="-100 984.7607854621749;2560 984.7607854621749" dur="125s" repeatCount="indefinite" begin="-370.3030410376168s"></animateTransform>
  <path d="M84.717,33.597c0.791-2.503,1.186-5.138,1.186-7.773C85.903,11.594,74.308,0,60.079,0 c-9.881,0-18.445,5.534-22.793,13.702c-1.581-0.527-3.426-0.791-5.138-0.791c-9.486,0-17.128,7.642-17.128,17.128 c0,1.186,0.132,2.372,0.395,3.426C6.719,34.783,0,42.424,0,51.515C0,61.66,8.169,69.829,18.314,69.829h63.373 C91.831,69.829,100,61.66,100,51.515C99.868,42.556,93.281,35.046,84.717,33.597z" fill="var(--darker-cloud, #bddeff)" transform="scale(0.9)"></path>
</g><g transform="translate(-100 1079.6987255376828) rotate(0)">
  <animateTransform attributeName="transform" type="translate" keyTimes="0;1" values="-100 1079.6987255376828;2560 1079.6987255376828" dur="125s" repeatCount="indefinite" begin="-174.48007540903498s"></animateTransform>
  <path d="M84.717,33.597c0.791-2.503,1.186-5.138,1.186-7.773C85.903,11.594,74.308,0,60.079,0 c-9.881,0-18.445,5.534-22.793,13.702c-1.581-0.527-3.426-0.791-5.138-0.791c-9.486,0-17.128,7.642-17.128,17.128 c0,1.186,0.132,2.372,0.395,3.426C6.719,34.783,0,42.424,0,51.515C0,61.66,8.169,69.829,18.314,69.829h63.373 C91.831,69.829,100,61.66,100,51.515C99.868,42.556,93.281,35.046,84.717,33.597z" fill="var(--darker-cloud, #bddeff)" transform="scale(0.9)"></path>
</g><g transform="translate(-100 1996.3792943989044) rotate(0)">
  <animateTransform attributeName="transform" type="translate" keyTimes="0;1" values="-100 1996.3792943989044;2560 1996.3792943989044" dur="125s" repeatCount="indefinite" begin="-291.0952114002986s"></animateTransform>
  <path d="M84.717,33.597c0.791-2.503,1.186-5.138,1.186-7.773C85.903,11.594,74.308,0,60.079,0 c-9.881,0-18.445,5.534-22.793,13.702c-1.581-0.527-3.426-0.791-5.138-0.791c-9.486,0-17.128,7.642-17.128,17.128 c0,1.186,0.132,2.372,0.395,3.426C6.719,34.783,0,42.424,0,51.515C0,61.66,8.169,69.829,18.314,69.829h63.373 C91.831,69.829,100,61.66,100,51.515C99.868,42.556,93.281,35.046,84.717,33.597z" fill="var(--darker-cloud, #bddeff)" transform="scale(0.9)"></path>
</g></g>
</svg>